{
  "accessors": [
    {
      "bufferView": 2,
      "componentType": 5126,
      "count": 1185,
      "max": [
        105.12211608886719,
        118.01695251464844,
        122.46749877929688
      ],
      "min": [
        -105.12205505371094,
        -25.913360595703125,
        -99.92326354980469
      ],
      "type": "VEC3"
    },
    {
      "bufferView": 2,
      "byteOffset": 14220,
      "componentType": 5126,
      "count": 1185,
      "max": [
        0.9923328757286072,
        0.998417854309082,
        1.0
      ],
      "min": [
        -0.992332935333252,
        -1.0,
        -0.9988003373146057
      ],
      "type": "VEC3"
    },
    {
      "bufferView": 3,
      "componentType": 5126,
      "count": 1185,
      "max": [
        0.9998118281364441,
        0.9921642541885376,
        0.9999997615814209,
        1.0
      ],
      "min": [
        -1.0,
        -0.9992641806602478,
        -0.8910422325134277,
        -1.0
      ],
      "type": "VEC4"
    },
    {
      "bufferView": 1,
      "componentType": 5126,
      "count": 1185,
      "max": [
        0.9291709661483765,
        0.9900000095367432
      ],
      "min": [
        0.009999999776482582,
        0.00999993085861206
      ],
      "type": "VEC2"
    },
    {
      "bufferView": 1,
      "byteOffset": 9480,
      "componentType": 5126,
      "count": 1185,
      "max": [
        0.9291709661483765,
        0.9900000095367432
      ],
      "min": [
        0.009999999776482582,
        0.00999993085861206
      ],
      "type": "VEC2"
    },
    {
      "bufferView": 0,
      "componentType": 5125,
      "count": 3474,
      "type": "SCALAR"
    }
  ],
  "asset": {
    "extras": {
      "author": "Scritta (https://sketchfab.com/scritta)",
      "license": "CC-BY-4.0 (http://creativecommons.org/licenses/by/4.0/)",
      "source": "https://sketchfab.com/3d-models/free-lowpoly-ladybug-142f2b38673d4768912c9e7ca1dfc0f3",
      "title": "Free lowpoly ladybug"
    },
    "generator": "Sketchfab-13.17.0",
    "version": "2.0"
  },
  "bufferViews": [
    {
      "buffer": 0,
      "byteLength": 13896,
      "name": "floatBufferViews",
      "target": 34963
    },
    {
      "buffer": 0,
      "byteLength": 18960,
      "byteOffset": 13896,
      "byteStride": 8,
      "name": "floatBufferViews",
      "target": 34962
    },
    {
      "buffer": 0,
      "byteLength": 28440,
      "byteOffset": 32856,
      "byteStride": 12,
      "name": "floatBufferViews",
      "target": 34962
    },
    {
      "buffer": 0,
      "byteLength": 18960,
      "byteOffset": 61296,
      "byteStride": 16,
      "name": "floatBufferViews",
      "target": 34962
    }
  ],
  "buffers": [
    {
      "byteLength": 80256,
      "uri": "scene.bin"
    }
  ],
  "images": [
    {
      "uri": "textures/Material.001_baseColor.png"
    },
    {
      "uri": "textures/Material.001_metallicRoughness.png"
    },
    {
      "uri": "textures/Material.001_normal.png"
    }
  ],
  "materials": [
    {
      "doubleSided": true,
      "name": "Material.001",
      "normalTexture": {
        "index": 2
      },
      "pbrMetallicRoughness": {
        "baseColorTexture": {
          "index": 0
        },
        "metallicFactor": 0.0,
        "metallicRoughnessTexture": {
          "index": 1
        },
        "roughnessFactor": 0.9617987998765875
      }
    }
  ],
  "meshes": [
    {
      "name": "ladybug_Material.001_0",
      "primitives": [
        {
          "attributes": {
            "NORMAL": 1,
            "POSITION": 0,
            "TANGENT": 2,
            "TEXCOORD_0": 3,
            "TEXCOORD_1": 4
          },
          "indices": 5,
          "material": 0,
          "mode": 4
        }
      ]
    }
  ],
  "nodes": [
    {
      "children": [
        1
      ],
      "matrix": [
        1.0,
        0.0,
        0.0,
        0.0,
        0.0,
        2.220446049250313e-16,
        -1.0,
        0.0,
        0.0,
        1.0,
        2.220446049250313e-16,
        0.0,
        0.0,
        0.0,
        0.0,
        1.0
      ],
      "name": "Sketchfab_model"
    },
    {
      "children": [
        2
      ],
      "matrix": [
        0.009999999776482582,
        0.0,
        0.0,
        0.0,
        0.0,
        0.0,
        0.009999999776482582,
        0.0,
        0.0,
        -0.009999999776482582,
        0.0,
        0.0,
        0.0,
        0.0,
        0.0,
        1.0
      ],
      "name": "9beba5af1d6f4078a4ebf8504ea19dc6.fbx"
    },
    {
      "children": [
        3
      ],
      "name": "RootNode"
    },
    {
      "children": [
        4
      ],
      "matrix": [
        1.0,
        0.0,
        0.0,
        0.0,
        0.0,
        0.9999999999999867,
        1.6292067073209113e-07,
        0.0,
        0.0,
        -1.6292067073209113e-07,
        0.9999999999999867,
        0.0,
        0.0,
        0.0,
        0.0,
        1.0
      ],
      "name": "ladybug"
    },
    {
      "mesh": 0,
      "name": "ladybug_Material.001_0"
    }
  ],
  "samplers": [
    {
      "magFilter": 9729,
      "minFilter": 9987,
      "wrapS": 10497,
      "wrapT": 10497
    }
  ],
  "scene": 0,
  "scenes": [
    {
      "name": "Sketchfab_Scene",
      "nodes": [
        0
      ]
    }
  ],
  "textures": [
    {
      "sampler": 0,
      "source": 0
    },
    {
      "sampler": 0,
      "source": 1
    },
    {
      "sampler": 0,
      "source": 2
    }
  ]
}
